<svg width="66" height="12" viewBox="0 0 66 12" fill="none" xmlns="http://www.w3.org/2000/svg">
<path d="M4.08789 6.56348C2.96224 6.23991 2.14193 5.84342 1.62695 5.37402C1.11654 4.90007 0.861328 4.31673 0.861328 3.62402C0.861328 2.84017 1.1735 2.19303 1.79785 1.68262C2.42676 1.16764 3.24251 0.910156 4.24512 0.910156C4.92871 0.910156 5.53711 1.04232 6.07031 1.30664C6.60807 1.57096 7.02279 1.93555 7.31445 2.40039C7.61068 2.86523 7.75879 3.37337 7.75879 3.9248H6.43945C6.43945 3.32324 6.24805 2.85156 5.86523 2.50977C5.48242 2.16341 4.94238 1.99023 4.24512 1.99023C3.59798 1.99023 3.09212 2.13379 2.72754 2.4209C2.36751 2.70345 2.1875 3.09766 2.1875 3.60352C2.1875 4.00911 2.3584 4.35319 2.7002 4.63574C3.04655 4.91374 3.63216 5.16895 4.45703 5.40137C5.28646 5.63379 5.93359 5.89128 6.39844 6.17383C6.86784 6.45182 7.21419 6.77767 7.4375 7.15137C7.66536 7.52507 7.7793 7.96484 7.7793 8.4707C7.7793 9.27734 7.46484 9.92448 6.83594 10.4121C6.20703 10.8952 5.36621 11.1367 4.31348 11.1367C3.62988 11.1367 2.99186 11.0068 2.39941 10.7471C1.80697 10.4827 1.34896 10.1227 1.02539 9.66699C0.70638 9.21126 0.546875 8.69401 0.546875 8.11523H1.86621C1.86621 8.7168 2.08724 9.19303 2.5293 9.54395C2.97591 9.8903 3.57064 10.0635 4.31348 10.0635C5.00618 10.0635 5.53711 9.9222 5.90625 9.63965C6.27539 9.3571 6.45996 8.97201 6.45996 8.48438C6.45996 7.99674 6.28906 7.62077 5.94727 7.35645C5.60547 7.08757 4.98568 6.82324 4.08789 6.56348ZM12.3389 11.1367C11.3363 11.1367 10.5205 10.8086 9.8916 10.1523C9.2627 9.49154 8.94824 8.6097 8.94824 7.50684V7.27441C8.94824 6.54069 9.08724 5.88672 9.36523 5.3125C9.64779 4.73372 10.0397 4.28255 10.541 3.95898C11.0469 3.63086 11.5938 3.4668 12.1816 3.4668C13.1432 3.4668 13.8906 3.78353 14.4238 4.41699C14.957 5.05046 15.2236 5.95736 15.2236 7.1377V7.66406H10.2129C10.2311 8.39323 10.443 8.9834 10.8486 9.43457C11.2588 9.88118 11.7783 10.1045 12.4072 10.1045C12.8538 10.1045 13.2321 10.0133 13.542 9.83105C13.8519 9.64876 14.123 9.40723 14.3555 9.10645L15.1279 9.70801C14.5081 10.6605 13.5785 11.1367 12.3389 11.1367ZM12.1816 4.50586C11.6712 4.50586 11.2428 4.69271 10.8965 5.06641C10.5501 5.43555 10.3359 5.95508 10.2539 6.625H13.959V6.5293C13.9225 5.88672 13.7493 5.38997 13.4395 5.03906C13.1296 4.68359 12.7103 4.50586 12.1816 4.50586ZM19.7627 11.1367C18.7601 11.1367 17.9443 10.8086 17.3154 10.1523C16.6865 9.49154 16.3721 8.6097 16.3721 7.50684V7.27441C16.3721 6.54069 16.5111 5.88672 16.7891 5.3125C17.0716 4.73372 17.4635 4.28255 17.9648 3.95898C18.4707 3.63086 19.0176 3.4668 19.6055 3.4668C20.5671 3.4668 21.3145 3.78353 21.8477 4.41699C22.3809 5.05046 22.6475 5.95736 22.6475 7.1377V7.66406H17.6367C17.6549 8.39323 17.8669 8.9834 18.2725 9.43457C18.6826 9.88118 19.2021 10.1045 19.8311 10.1045C20.2777 10.1045 20.6559 10.0133 20.9658 9.83105C21.2757 9.64876 21.5469 9.40723 21.7793 9.10645L22.5518 9.70801C21.932 10.6605 21.0023 11.1367 19.7627 11.1367ZM19.6055 4.50586C19.0951 4.50586 18.6667 4.69271 18.3203 5.06641C17.974 5.43555 17.7598 5.95508 17.6777 6.625H21.3828V6.5293C21.3464 5.88672 21.1732 5.38997 20.8633 5.03906C20.5534 4.68359 20.1341 4.50586 19.6055 4.50586ZM29.4834 1.04688L32.7373 9.16797L35.9912 1.04688H37.6934V11H36.3809V7.12402L36.5039 2.94043L33.2363 11H32.2314L28.9707 2.96094L29.1006 7.12402V11H27.7881V1.04688H29.4834ZM39.4775 7.2334C39.4775 6.50879 39.6188 5.8571 39.9014 5.27832C40.1885 4.69954 40.585 4.25293 41.0908 3.93848C41.6012 3.62402 42.1823 3.4668 42.834 3.4668C43.8411 3.4668 44.6546 3.81543 45.2744 4.5127C45.8988 5.20996 46.2109 6.13737 46.2109 7.29492V7.38379C46.2109 8.10384 46.0719 8.75098 45.7939 9.3252C45.5205 9.89486 45.1263 10.3392 44.6113 10.6582C44.1009 10.9772 43.513 11.1367 42.8477 11.1367C41.8451 11.1367 41.0316 10.7881 40.4072 10.0908C39.7874 9.39355 39.4775 8.4707 39.4775 7.32227V7.2334ZM40.749 7.38379C40.749 8.2041 40.9382 8.86263 41.3164 9.35938C41.6992 9.85612 42.2096 10.1045 42.8477 10.1045C43.4902 10.1045 44.0007 9.85384 44.3789 9.35254C44.7572 8.84668 44.9463 8.1403 44.9463 7.2334C44.9463 6.4222 44.7526 5.76595 44.3652 5.26465C43.9824 4.75879 43.472 4.50586 42.834 4.50586C42.2096 4.50586 41.7061 4.75423 41.3232 5.25098C40.9404 5.74772 40.749 6.45866 40.749 7.38379ZM51.3721 4.73828C51.1807 4.70638 50.9733 4.69043 50.75 4.69043C49.9206 4.69043 49.3577 5.04362 49.0615 5.75V11H47.7969V3.60352H49.0273L49.0479 4.45801C49.4626 3.7972 50.0505 3.4668 50.8115 3.4668C51.0576 3.4668 51.2445 3.4987 51.3721 3.5625V4.73828ZM55.4736 11.1367C54.471 11.1367 53.6553 10.8086 53.0264 10.1523C52.3975 9.49154 52.083 8.6097 52.083 7.50684V7.27441C52.083 6.54069 52.222 5.88672 52.5 5.3125C52.7826 4.73372 53.1745 4.28255 53.6758 3.95898C54.1816 3.63086 54.7285 3.4668 55.3164 3.4668C56.278 3.4668 57.0254 3.78353 57.5586 4.41699C58.0918 5.05046 58.3584 5.95736 58.3584 7.1377V7.66406H53.3477C53.3659 8.39323 53.5778 8.9834 53.9834 9.43457C54.3936 9.88118 54.9131 10.1045 55.542 10.1045C55.9886 10.1045 56.3669 10.0133 56.6768 9.83105C56.9867 9.64876 57.2578 9.40723 57.4902 9.10645L58.2627 9.70801C57.6429 10.6605 56.7132 11.1367 55.4736 11.1367ZM55.3164 4.50586C54.806 4.50586 54.3776 4.69271 54.0312 5.06641C53.6849 5.43555 53.4707 5.95508 53.3887 6.625H57.0938V6.5293C57.0573 5.88672 56.8841 5.38997 56.5742 5.03906C56.2643 4.68359 55.8451 4.50586 55.3164 4.50586ZM63.9229 4.5127L65.9395 7.17188V7.30176L63.9229 9.96094H62.9521L64.7158 7.24023L62.9521 4.5127H63.9229Z" fill="black"/>
</svg>
